<svg width="47" height="35" viewBox="0 0 47 35" fill="none" xmlns="http://www.w3.org/2000/svg">
<path fill-rule="evenodd" clip-rule="evenodd" d="M46.2398 9.17714C46.8093 9.74665 46.8093 10.67 46.2398 11.2395L37.4898 19.9895C37.2163 20.263 36.8454 20.4167 36.4586 20.4167C36.0718 20.4167 35.7009 20.263 35.4274 19.9895L31.0524 15.6145C30.4829 15.045 30.4829 14.1216 31.0524 13.5521C31.6219 12.9826 32.5453 12.9826 33.1148 13.5521L36.4586 16.8959L44.1774 9.17714C44.7469 8.60762 45.6703 8.60762 46.2398 9.17714Z" fill="#245501"/>
<path d="M2.91667 35C2.91667 35 0 35 0 32.0833C0 29.1667 2.91667 20.4167 17.5 20.4167C32.0833 20.4167 35 29.1667 35 32.0833C35 35 32.0833 35 32.0833 35H2.91667Z" fill="#245501"/>
<path d="M17.5 17.5C22.3325 17.5 26.25 13.5825 26.25 8.75C26.25 3.91751 22.3325 0 17.5 0C12.6675 0 8.75 3.91751 8.75 8.75C8.75 13.5825 12.6675 17.5 17.5 17.5Z" fill="#245501"/>
</svg>
