<svg width="35" height="35" viewBox="0 0 35 35" fill="none" xmlns="http://www.w3.org/2000/svg">
<path d="M1.16667 0C0.522334 0 0 0.522334 0 1.16667C0 1.811 0.522334 2.33333 1.16667 2.33333H3.75576L4.69306 6.08254L8.18665 24.715C8.29011 25.2668 8.77191 25.6667 9.33333 25.6667H11.6667C9.08934 25.6667 7 27.756 7 30.3333C7 32.9107 9.08934 35 11.6667 35C14.244 35 16.3333 32.9107 16.3333 30.3333C16.3333 27.756 14.244 25.6667 11.6667 25.6667H28C25.4227 25.6667 23.3333 27.756 23.3333 30.3333C23.3333 32.9107 25.4227 35 28 35C30.5773 35 32.6667 32.9107 32.6667 30.3333C32.6667 27.756 30.5773 25.6667 28 25.6667H30.3333C30.8947 25.6667 31.3765 25.2668 31.48 24.715L34.98 6.04834C35.044 5.70722 34.9527 5.35533 34.7311 5.08826C34.5094 4.82119 34.1804 4.66667 33.8333 4.66667H6.74424L5.7985 0.883708C5.66866 0.364347 5.20201 0 4.66667 0H1.16667ZM14 30.3333C14 31.622 12.9553 32.6667 11.6667 32.6667C10.378 32.6667 9.33333 31.622 9.33333 30.3333C9.33333 29.0447 10.378 28 11.6667 28C12.9553 28 14 29.0447 14 30.3333ZM30.3333 30.3333C30.3333 31.622 29.2887 32.6667 28 32.6667C26.7113 32.6667 25.6667 31.622 25.6667 30.3333C25.6667 29.0447 26.7113 28 28 28C29.2887 28 30.3333 29.0447 30.3333 30.3333ZM26.4916 12.4916L19.4916 19.4916C19.2728 19.7104 18.9761 19.8333 18.6667 19.8333C18.3572 19.8333 18.0605 19.7104 17.8417 19.4916L14.3417 15.9916C13.8861 15.536 13.8861 14.7973 14.3417 14.3417C14.7973 13.8861 15.536 13.8861 15.9916 14.3417L18.6667 17.0168L24.8417 10.8417C25.2973 10.3861 26.036 10.3861 26.4916 10.8417C26.9472 11.2973 26.9472 12.036 26.4916 12.4916Z" fill="#245501"/>
</svg>
