<svg xmlns="http://www.w3.org/2000/svg" viewBox="0 0 224.29 224.6"><defs><style>.cls-1{fill:#aad476;}.cls-2{fill:#fefefe;}.cls-3{fill:#548e24;}.cls-4{fill:#538c22;}.cls-5{fill:#59912b;}.cls-6{fill:#548d24;}.cls-7{fill:#558e25;}.cls-8{fill:#cedebf;}.cls-9{fill:#75aa45;}.cls-10{fill:#76ab47;}.cls-11{fill:#e0ead7;}.cls-12{fill:#76aa46;}.cls-13{fill:#79ac4a;}.cls-14{fill:#7bae4d;}.cls-15{fill:#dae7d0;}.cls-16{fill:#c2d6b1;}.cls-17{fill:#fdfdfd;}.cls-18{fill:#578f27;}.cls-19{fill:#fcfdfb;}.cls-20{fill:#fefefd;}.cls-21{fill:#d4e1c7;}.cls-22{fill:#c4d8b3;}.cls-23{fill:#cedec0;}.cls-24{fill:#c0d5ae;}.cls-25{fill:#d7e4cb;}.cls-26{fill:#fbfcfa;}.cls-27{fill:#f9fbf7;}.cls-28{fill:#afc998;}.cls-29{fill:#f2f7ee;}.cls-30{fill:#deead3;}.cls-31{fill:#aac692;}.cls-32{fill:#d5e2c8;}</style></defs><g id="Layer_2" data-name="Layer 2"><g id="Layer_1-2" data-name="Layer 1"><path class="cls-1" d="M.05,112.1C-1.7,52.2,50.58-.11,112,0c59,.1,112.49,48.29,112.29,112.51A112,112,0,0,1,112,224.6C47,224.65-1.75,170.3.05,112.1Z"/><path class="cls-2" d="M4,112.09C4.93,51.7,52,4.39,112.15,4.54c60.72.14,107.67,48,107.55,107.92C219.59,172.79,172,220.17,111.78,220,50.82,219.91,4.74,171.68,4,112.09Z"/><path class="cls-3" d="M78.21,147.54c-5.15,1.33-10.37.55-15.56.43a2.45,2.45,0,0,1-2.47-2.72c0-1.87,1.32-2.28,2.63-2.63a24.55,24.55,0,0,1,3.61-.37V128.76q0-12.91,0-25.84c0-4.61,0-4.6,4.64-4.79.62,0,1.24-.14,1.86-.21,2.24-2,5.51-2.19,7.56-4.47a6.41,6.41,0,0,1,.87-.6c4.08-3.24,6.25.63,9,2.41.45.26.89.53,1.34.78,4.2,1.95,8.39,2.24,12.55-.1a17.9,17.9,0,0,0,2.59-1.39c5.33-3.72,5.33-3.72,10.69,0,5.07,3.43,10.29,4.4,15.75.89A8.07,8.07,0,0,0,135.33,94c2.44-3.08,5.06-2.79,7.84-.53.29.17.57.37.85.57,1.87,1.66,4.48,2.13,6.31,3.87.49.09,1,.21,1.47.25,5.69.39,5.7.39,5.7,6.32q0,17,0,34V142c1.65.73,3.23.11,4.58.89a2.75,2.75,0,0,1,1.65,2.66,2.2,2.2,0,0,1-2,2.3,64.64,64.64,0,0,1-15.54-.14c-.24,0-.39-.59-.59-.9-1.75-3.64-.6-7.44-.66-11.17-8.73,0-17.46,0-26.19-.15-1.75,0-2.44.44-2.33,2.29.16,2.61,0,5.24.06,7.86,0,1.69-.76,2.83-2.44,2.45-2.23-.52-5.46,1.94-6.59-2.06-1.28-1.49-1-3.3-1-5,0-10.37,0-20.74,0-31.11,0-4.5-.35-4.82-5-4.83-5.87,0-11.74,0-17.61,0-4.15,0-4.53.37-4.54,4.46,0,11,0,22,0,33C79.26,144.27,79.53,146.08,78.21,147.54Z"/><path class="cls-4" d="M73,97.34c-3.06-.14-6.2.6-9-1.57-3.7-2.89-4.72-6.22-2.8-10.5Q66.06,74.4,71,63.54c.5-1.11.77-2.39,1.92-3.11,5.33-1.87,10.78-.92,16.17-.58,1.83.12,2.19,2,1.91,3.51Q88.52,76.72,85.2,89.89c-.54,2.14-2.61,2.51-4,3.65l0,0C78.75,95.37,76.18,97.09,73,97.34Z"/><path class="cls-4" d="M151,60.44c3.16,4.51,4.69,9.81,7.07,14.7,1.63,3.35,3.12,6.77,4.65,10.17a8.39,8.39,0,0,1-7.6,12.07c-1.37,0-2.74-.1-4.11-.15-2.91,0-5.2-1.59-7.57-3l0,0c-3.71-2-5.37-5.21-6.07-9.24-1.13-6.52-2.82-12.92-4.2-19.39-1.06-5-.17-6.29,4.86-6.12C142.4,59.68,146.83,58.53,151,60.44Z"/><path class="cls-5" d="M73,59.67c-2.31-1.19-3.9-2.86-3.11-5.66s3.16-3.16,5.67-3.16q36.18,0,72.35,0c2.31,0,4.61.08,5.85,2.45,1.17,2.22.15,4.36-2.85,6.4a2.33,2.33,0,0,1-1.4.42c-18.45.57-36.92,1.26-55.36.5C87.15,60.34,80,60.87,73,59.67Z"/><path class="cls-6" d="M106.85,146.07c-.06,1.31-.58,2.12-2,2.11-8.12,0-16.25,0-24.37-.07-.43,0-.87-.43-1.3-.66-1-.93-.52-2.13-.52-3.19q-.06-17.77,0-35.54c0-4.17.11-4.29,4.12-4.3,7.23,0,14.46,0,21.69,0,1.45,0,2.72-.06,2.69,2C106.92,119.66,107.39,132.87,106.85,146.07Z"/><path class="cls-7" d="M145,146.81c-.66,1.36-1.86,1.4-3.16,1.39-7.25,0-14.49-.08-21.74,0-2.3,0-3.15-.8-3-3.06a38.64,38.64,0,0,0,0-6c-.19-2.39.83-3,3-2.93,8,.12,16,.08,24,.1,2.12,1.26,1,3.32,1.14,5S145.71,145,145,146.81Z"/><path class="cls-8" d="M73,59.67l77.91,0c0,.24.06.48.07.73-4.85,0-9.7.17-14.54.05-2.35-.06-3.21.68-2.68,3,2,8.69,4,17.36,5.91,26.08.5,2.34,3.27,2.57,3.8,4.73-3.91-3.33-6.77-1-9.55,1.76a1,1,0,0,1-.42-1c4.33-4,3.43-8.81,2.18-13.77s-2.47-10.18-3.38-15.33c-.58-3.34-2.27-4.62-5.62-4.4-4.59.3-9.21-.27-13.8.38a6.86,6.86,0,0,1-1.81,0c-5.2-.72-10.43-.22-15.64-.34-2.08,0-3.16,1-3.58,3-1.55,7.55-3.26,15.07-5,22.59a4.87,4.87,0,0,0,1.3,4.8c.94,1,2,1.9,2.16,3.38l-.26.54c-.44-.2-1-.28-1.28-.62-2-3-4.56-3.56-7.66-1.72,2.53-2,3.35-4.85,4-7.91,1.47-7.15,3.19-14.25,4.77-21.38.76-3.42.51-3.69-3.22-3.72l-13.79-.1Z"/><path class="cls-9" d="M58.74,178.64c.61,2.93-1.38,3.89-4,4.22a8.12,8.12,0,0,1-9.41-7.37c-.28-4.39,3.65-8.37,8.21-8.36a7.79,7.79,0,0,1,3.23.81c.57.27,1.09.76.9,1.45a1.37,1.37,0,0,1-1.73,1A14.17,14.17,0,0,0,53,170a5,5,0,0,0-4.75,5.21,5.35,5.35,0,0,0,5.33,5.17c1,0,2-.12,2.21-1.46.11-1-.09-1.75-1.26-1.87-.89-.09-1.92-.21-1.77-1.4.18-1.4,1.44-1.08,2.38-1.13C58.57,174.35,58.76,174.56,58.74,178.64Z"/><path class="cls-10" d="M121.61,182.92a5.92,5.92,0,0,1-4.56-1.69,1.29,1.29,0,0,1-.33-1.68,1.22,1.22,0,0,1,1.66-.38c1.22.61,2.35,1.44,3.82,1.33,1.17-.09,2.33-.32,2.62-1.64s-.75-2-1.89-2.28c-1-.26-2-.39-2.9-.7-1.93-.62-3.33-1.86-3.36-4s1.28-3.64,3.39-4.37a7.09,7.09,0,0,1,6.39,1,1.28,1.28,0,0,1,.58,1.88,1.2,1.2,0,0,1-1.66.34,7.11,7.11,0,0,0-4-.82c-.89.1-1.76.33-1.93,1.42a1.69,1.69,0,0,0,1.35,1.95c.7.24,1.43.38,2.15.56,3.77,1,5.1,2.4,4.74,5.09C127.39,181.44,125.18,182.93,121.61,182.92Z"/><path class="cls-11" d="M106.85,146.07q-.07-18.73-.14-37.48c0-3.83,0-3.84-3.92-3.84-6.62,0-13.25.13-19.87-.07-2.93-.09-3.92.75-3.88,3.77.16,13,.09,26,.11,39l-.94.09c0-13.34.11-26.69-.06-40,0-3,.86-3.73,3.78-3.65,7.72.22,15.46.11,23.19,0,1.61,0,2.53.13,2.51,2.14-.12,13.34-.15,26.68-.2,40Z"/><path class="cls-10" d="M97.71,180.34c-1,3-3.48,2.72-5.75,2.47a5.57,5.57,0,0,1-4.64-5.5A6.14,6.14,0,0,1,92,170.92a5.53,5.53,0,0,1,6,3.34c1.13,2.53.64,3.38-2.15,3.48-1.73.07-3.46,0-5.38,0,.1,2.11,1.3,2.55,2.89,2.82S96.06,179,97.71,180.34Z"/><path class="cls-12" d="M170.42,177.75c1,1.76,1,1.76,7.23,2.58a5.14,5.14,0,0,1-7.07,2,6.26,6.26,0,0,1-2.58-8.09,5.4,5.4,0,0,1,10.12.15c.91,2.09.71,3.4-2,3.32C174.32,177.71,172.51,177.75,170.42,177.75Z"/><path class="cls-12" d="M75.75,177.76c1.8,4.44,5.09,1.87,7.64,2.18-1.62,2.81-4,3.67-6.68,2.74a6.23,6.23,0,0,1-3.7-7,5.56,5.56,0,0,1,11-.14c.26,1.42-.24,2.17-1.7,2.21l-3,0Z"/><path class="cls-10" d="M153.25,176.85a5.67,5.67,0,0,1-5.66,6.07,5.93,5.93,0,0,1-6.27-5.93,6.16,6.16,0,0,1,6.14-6.19A5.92,5.92,0,0,1,153.25,176.85Z"/><path class="cls-13" d="M102.27,176.88c0-1.12,0-2.24,0-3.36.07-1.74.33-3.24,2.61-1.79,1,.63,1.55-.42,2.32-.66,2.58-.8,4.43.11,5.16,2.74.66,2.44.29,4.95.25,7.43a1.32,1.32,0,0,1-1.4,1.42,1.41,1.41,0,0,1-1.31-1.52c-.09-1.87-.08-3.73-.11-5.6,0-1.32-.66-2.21-2-2.24a2.28,2.28,0,0,0-2.61,2.12c-.14,1.85-.08,3.72-.15,5.59,0,.79-.36,1.55-1.21,1.64-1.1.11-1.5-.71-1.54-1.66,0-1.37,0-2.74,0-4.11Z"/><path class="cls-13" d="M130.44,173c.07-.54.05-.75.1-.77,1.81-.57,1.66-4,3.65-3.3,1.26.43,2,2.7,4.73,3.51-3.86,1.11-3.91,3.42-3.69,5.88.09,1-.12,2.08,1.35,2.22.73.06,1.17.43.9,1.2a1.71,1.71,0,0,1-1.41,1.07c-2.14.42-3.41-1-3.64-4C132.26,176.55,133.53,173.86,130.44,173Z"/><path class="cls-14" d="M157,177c0-.87,0-1.73,0-2.6,0-2-.17-3.94,2.95-2.76.73.27,1.83-.58,2.78-.76a1.36,1.36,0,0,1,1.73,1c.23,1-.36,1.42-1.21,1.37-3.7-.19-3.21,2.45-3.46,4.8-.18,1.61,1.18,4.52-1.53,4.47-2.15,0-.95-2.84-1.25-4.41A5.86,5.86,0,0,1,157,177Z"/><path class="cls-14" d="M62.5,176.75c0-1.11,0-2.23,0-3.34,0-1.62.43-2.79,2.41-1.9,1.36.61,2.26-.82,3.52-.71.85.08,1.47.39,1.58,1.24a1,1,0,0,1-1.1,1.17c-3.61-.28-3.6,2.15-3.58,4.64a31,31,0,0,1-.07,3.34c-.07.75-.43,1.48-1.35,1.48a1.37,1.37,0,0,1-1.36-1.46c-.08-1.48,0-3,0-4.46Z"/><path class="cls-15" d="M145,146.81c-.73-3.45.65-7.08-.86-10.46l.77-.68c1.74,3.63.52,7.44.66,11.17h-.29Z"/><path class="cls-8" d="M73,97.34l8.29-3.83c-1.89,3.13-5.07,3.83-8.31,4.41A5.52,5.52,0,0,0,73,97.34Z"/><path class="cls-16" d="M143.46,94.26l7.57,3-.7.65C147.7,97.32,145.11,96.67,143.46,94.26Z"/><path class="cls-17" d="M94.92,101.37c-4.72,0-9.45-.06-14.18,0-4.2.06-4.76.64-4.76,4.82,0,12.11-.11,24.22.06,36.33,0,2.9-.83,3.67-3.57,3.45-3-.24-5.93-.06-8.89-.19,5.3-1.53,5.31-1.53,5.31-7.67,0-11.36.08-22.73,0-34.09,0-2.41.45-3.63,3.19-3.69,4.14-.09,7.62-2.16,10.84-4.59,1.08-.81,2-1.45,3.14-.09a15.63,15.63,0,0,0,9,4.89Z"/><path class="cls-18" d="M123.83,100.34l4.75,0c4.33.5,8.58-.68,12.93-.55,9.72.27,10.67,1,10.65,10.72,0,5.85.19,11.71-.1,17.56-.21,4.34-2,5.58-6.34,4.87-9.82,0-19.64,0-29.47,0-2.15.3-4.37.84-5.67-1.7-1-4.92-.27-9.9-.45-14.85-.11-3.1,0-6.21,0-9.32,0-5.66,2.62-7.84,8.25-6.93C120.18,100.41,122,101.11,123.83,100.34Z"/><path class="cls-17" d="M145.74,132.57c5.16-.4,5.3-.54,5.31-5.83,0-6.85,0-13.69,0-20.54,0-4.1-.68-4.8-4.71-4.84-4.85,0-9.7,0-14.55,0-1.11,0-2.57.67-3.21-1a11.72,11.72,0,0,0,8.57-3.94c1.52-1.59,2.57-1.74,4.3-.34a17.78,17.78,0,0,0,11.26,4.42c2.55,0,2.28,1.66,2.28,3.29q0,14.77,0,29.55c0,2.61.15,5.24,0,7.85-.18,2.79.61,4.35,3.72,3.94a1.49,1.49,0,0,1,1.79.83c-3.57,0-7-.07-10.4,0-1.66.05-2.19-.6-2.13-2.18.09-2.24,0-4.49,0-6.73,0-1.77-.36-3.22-2.22-3.86-.27-.13-.36-.26-.28-.4S145.65,132.57,145.74,132.57Z"/><path class="cls-19" d="M123.83,100.34c-2,2-4.43.89-6.64,1-6,.17-6.67.68-6.67,6.66,0,6.24,0,12.48,0,18.71a12.7,12.7,0,0,0,.54,4.42c.44,4.82,1.64,9.66-.63,14.36-1-1.08-.5-2.38-.51-3.57,0-11.47,0-22.94,0-34.4,0-5.71-.25-5.94-5.79-6.12-1.22,0-2.5.3-4-.63a18.61,18.61,0,0,0,10.29-5.22c1.44-1.43,2.38-.57,3.45.38C116.72,98.43,119.8,100.44,123.83,100.34Z"/><path class="cls-20" d="M110.44,145.44c.4-4.78-.66-9.62.63-14.36,1.26,1.41,3,1.32,4.66,1.46q.36.26.24.48c-.09.16-.17.24-.26.24-1.45.67-1.7,1.91-1.68,3.35,0,2.08-.11,4.16,0,6.23C114.19,145.71,113.2,146.75,110.44,145.44Z"/><path class="cls-21" d="M115.71,133.26a3.47,3.47,0,0,0,0-.72l30,0,0,.61Z"/><path class="cls-22" d="M134,96.06a13.59,13.59,0,0,1-16.91-.8,1.16,1.16,0,0,1,.89-.67c5.06,2,10.27,1.76,15.51.94A4.26,4.26,0,0,1,134,96.06Z"/><path class="cls-23" d="M117.05,95.26a10,10,0,0,1-1-.56c-4.19-3.14-4.16-3.11-8.11,0a36,36,0,0,1-3.46,2.17,1.26,1.26,0,0,1-.35-1,21.73,21.73,0,0,1,6.92-5.83,3.18,3.18,0,0,1,1.62,0c2.15,1,4.19,2.15,4.73,4.77A2,2,0,0,0,117.05,95.26Z"/><path class="cls-24" d="M104.5,96l0,.93c-4.59,2.52-9.1,2.28-13.55-.38a2.16,2.16,0,0,1,1-.65C96.16,96.51,100.33,95.83,104.5,96Z"/><path class="cls-25" d="M92.09,96.4,91,96.53a.86.86,0,0,1-.84-.65,1.52,1.52,0,0,0,.26-.35A1.2,1.2,0,0,1,92.09,96.4Z"/><path class="cls-26" d="M112,57.07H77.48c-.88,0-1.76,0-2.63,0-1.25-.09-2.7-.14-2.63-1.91.07-1.61,1.37-1.91,2.69-2,.75,0,1.5,0,2.25,0h71.58c1.48,0,2.92.25,2.95,2.08,0,2.06-1.68,1.83-3,1.83Q130.32,57.09,112,57.07Z"/><path class="cls-2" d="M104.46,126.37c0,5.61-.09,11.23.05,16.84,0,2.12-.6,2.8-2.73,2.75q-8.79-.18-17.59,0c-2.14,0-2.79-.68-2.77-2.78q.12-16.85,0-33.69c0-2,.72-2.52,2.61-2.49,6,.1,12,.11,18,0,2,0,2.55.59,2.51,2.53C104.39,115.14,104.47,120.75,104.46,126.37Z"/><path class="cls-27" d="M130.8,145.93c-3,0-6-.08-9,0-1.74.06-2.35-.47-2.41-2.3-.17-5-.27-5,4.9-5s10.22.17,15.32-.07c2.89-.13,3,1.41,2.85,3.45-.11,1.87.67,4.18-2.73,3.94C136.79,145.76,133.78,145.93,130.8,145.93Z"/><path class="cls-4" d="M92.09,96.4l-1.7-.87c-5.34-3.28-5.08-7.79-3.51-13.14,1.82-6.18,2.93-12.58,4.17-18.91.43-2.23,1.32-3.1,3.68-3,4.61.19,9.23,0,13.84.07.94,0,2-.38,2.73.69a5.57,5.57,0,0,1,1,3.88q0,10.77,0,21.56a5.38,5.38,0,0,1-1,3.86L104.5,96C100.42,97.84,96.27,97.53,92.09,96.4Z"/><path class="cls-4" d="M117.44,94.84l-4.75-4.3a3.38,3.38,0,0,1-.68-2.1q-.08-12.54,0-25.09a3.55,3.55,0,0,1,.64-2.11c.57-1,1.52-.69,2.35-.7,4.85,0,9.71.06,14.56,0,1.76,0,2.73.45,3.11,2.26q2.69,12.75,5.52,25.45a3.77,3.77,0,0,1-1.53,4.21,37.63,37.63,0,0,0-3.21,3.11C128,98.24,122.66,97.85,117.44,94.84Z"/><path class="cls-28" d="M112.65,61.24q0,14.66,0,29.3h-1.43q0-14.66,0-29.3Z"/><path class="cls-29" d="M95.64,175a8.34,8.34,0,0,1-5.06.31C92.19,172.59,92.63,172.54,95.64,175Z"/><path class="cls-30" d="M175.44,175.71c-1.73.08-3.4.56-5.06-.45a2.42,2.42,0,0,1,3.05-2C174.58,173.42,175.78,174,175.44,175.71Z"/><path class="cls-30" d="M75.9,175.33c2.07-3,3.11-3,5.28.17A7.34,7.34,0,0,1,75.9,175.33Z"/><path class="cls-26" d="M144.15,177.64c-.05-2.89,1.08-4.29,3.24-4.33a3.11,3.11,0,0,1,3.22,3.36c0,2-.83,3.72-3.12,3.83A3,3,0,0,1,144.15,177.64Z"/><path class="cls-31" d="M148.62,129.46c-.55,1.28-1.71.79-2.61.79-9.87,0-19.75-.06-29.62.08-2.81,0-3.72-.91-3.66-3.68.15-6.62,0-13.25.06-19.87,0-.94-.37-2,.69-2.74a8.2,8.2,0,0,1,1.61,3.64c.54,3.73.24,7.49.29,11.23.14,9.75-1.21,8.58,8.91,8.73,7.36.11,14.73-.38,22.09.3A4.12,4.12,0,0,1,148.62,129.46Z"/><path class="cls-32" d="M114.1,107c-.86-.84-.59-1.92-.62-2.94l33.76,0a.85.85,0,0,1-.37,1.17c-1.61.86-3.37.69-5.09.7-6.92,0-13.85,0-20.77,0A18.83,18.83,0,0,0,114.1,107Z"/><path class="cls-20" d="M147.24,104.76c0-.24,0-.47,0-.7,2-.26,1.46,1.23,1.46,2.21,0,7.73,0,15.46-.08,23.19-.55,0-1.1.06-1.34-.61A137.46,137.46,0,0,1,147.24,104.76Z"/><path class="cls-4" d="M147.24,104.76a2.28,2.28,0,0,1,.73,2v20.47a1.71,1.71,0,0,1-.69,1.62c-9.84,0-19.69-.14-29.53,0-2.84,0-3.61-.79-3.54-3.57.16-6.1,0-12.21-.11-18.31-.2-2.63,1.7-2.19,3.25-2.2Z"/></g></g></svg>