<svg width="35" height="35" viewBox="0 0 35 35" fill="none" xmlns="http://www.w3.org/2000/svg">
<path d="M24.0625 13.125C24.0625 16.7494 21.1244 19.6875 17.5 19.6875C13.8756 19.6875 10.9375 16.7494 10.9375 13.125C10.9375 9.50063 13.8756 6.5625 17.5 6.5625C21.1244 6.5625 24.0625 9.50063 24.0625 13.125Z" fill="#245501"/>
<path fill-rule="evenodd" clip-rule="evenodd" d="M0 17.5C0 7.83502 7.83502 0 17.5 0C27.165 0 35 7.83502 35 17.5C35 27.165 27.165 35 17.5 35C7.83502 35 0 27.165 0 17.5ZM17.5 2.1875C9.04314 2.1875 2.1875 9.04314 2.1875 17.5C2.1875 21.1169 3.4415 24.4409 5.53844 27.0609C7.09391 24.5552 10.5101 21.875 17.5 21.875C24.4899 21.875 27.9061 24.5552 29.4616 27.0609C31.5585 24.4409 32.8125 21.1169 32.8125 17.5C32.8125 9.04314 25.9569 2.1875 17.5 2.1875Z" fill="#245501"/>
</svg>
